<svg width="27" height="28" viewBox="0 0 27 28" fill="none" xmlns="http://www.w3.org/2000/svg">
<path d="M8.29408 6.43192C8.29408 6.43192 7.32478 7.09138 6.98096 10.2951C8.79359 12.6746 11.0463 12.2856 12.0381 11.9535C12.1283 11.9227 12.242 11.7737 12.248 11.6787C12.3797 9.39109 10.5162 6.34137 9.84498 5.3233C9.30501 5.54141 8.77945 5.89435 8.29408 6.43192Z" fill="#619813"/>
<path d="M17.7929 0.490813L18.1159 1.50001C18.3286 2.16647 18.3621 2.73391 18.2408 3.20834C21.9947 5.02902 24.6001 8.90531 24.6001 13.3968C24.6001 19.6279 19.5996 24.6968 13.4532 24.6968C13.3876 24.6968 13.3232 24.6874 13.2584 24.6862L13.2405 24.2649C13.2322 24.0766 13.3668 23.8699 13.5407 23.8043L15.6975 22.984C15.6975 22.984 16.7091 23.0412 17.1299 22.2716C17.343 21.8835 17.541 21.6124 17.6862 21.4376C17.8053 21.2938 17.8037 21.0887 17.6699 20.9574C17.2297 20.5252 16.3434 19.5784 16.2597 18.855C16.147 17.8865 14.7993 17.0889 13.057 16.9753C13.057 16.9753 12.1319 16.2543 12.0697 15.0101C12.0598 14.8215 11.9208 14.6341 11.7401 14.6796C11.2744 14.7954 10.4842 15.4016 10.445 18.1691C10.445 18.1691 7.97108 19.44 7.74052 23.082C7.54359 22.9625 7.34632 22.8445 7.15741 22.7126C7.24732 21.6056 7.52333 20.7237 7.84662 20.0581C8.48835 18.7355 9.38925 18.0001 9.84877 17.6898C9.94776 14.9581 10.8222 14.1599 11.5524 13.9772C11.7766 13.9211 12.012 13.9698 12.1985 14.111C12.4108 14.2713 12.546 14.5351 12.5604 14.8186C12.5979 15.5528 13.026 16.0681 13.2291 16.2729C13.5581 16.3037 13.8725 16.3569 14.1678 16.4298L14.1954 16.1721L14.4211 13.9467C14.4595 13.5714 14.7928 13.2543 15.1612 13.2011C16.5608 12.9944 19.6792 12.1539 19.8822 8.73867C19.9046 8.36147 19.5914 7.98266 19.2292 7.89331L16.2606 7.15857C16.2606 7.15857 16.1759 6.43223 15.3334 6.13364C14.7195 5.91533 12.6045 4.68389 10.5237 5.11831C11.3103 6.33227 13.0605 9.32465 12.9222 11.7182C12.9015 12.0947 12.6062 12.4835 12.2516 12.602C11.9108 12.7165 11.2986 12.8765 10.5546 12.8765C9.47673 12.8765 8.12322 12.5407 6.90357 11.2486C6.87963 11.6587 6.86594 12.1031 6.86364 12.5834C6.84983 15.0614 3.74479 17.4109 3.74479 17.4109L3.37394 18.1892C2.69748 16.7316 2.30775 15.1118 2.30775 13.3968C2.30775 8.79055 5.04377 4.82572 8.95176 3.06811C8.87059 2.62156 8.90986 2.10372 9.10291 1.49954L9.46607 0.370056C3.98797 2.09646 0 7.28286 0 13.3968C0 20.9166 6.03557 27.0351 13.4538 27.0351C20.8721 27.0351 26.9075 20.9166 26.9075 13.3968C26.9068 7.41575 23.0879 2.3255 17.7929 0.490813ZM14.98 19.0245C15.1894 19.0245 15.3594 19.196 15.3594 19.4092C15.3594 19.622 15.1894 19.7936 14.98 19.7936C14.7706 19.7936 14.6008 19.6221 14.6008 19.4092C14.6008 19.196 14.7706 19.0245 14.98 19.0245ZM14.6008 7.91792C14.8108 7.91792 14.98 8.08968 14.98 8.30239C14.98 8.5151 14.8108 8.6866 14.6008 8.6866C14.3906 8.6866 14.2211 8.51516 14.2211 8.30239C14.2214 8.08968 14.3915 7.91792 14.6008 7.91792Z" fill="#619813"/>
</svg>
